<svg width="100" height="100" viewBox="0 0 100 100" fill="none" xmlns="http://www.w3.org/2000/svg">
<path d="M89.0269 19.3759H80.209V11.2369C80.209 10.6972 79.9947 10.1796 79.6131 9.79801C79.2315 9.41642 78.7139 9.20208 78.1742 9.20208H70.4487V2.03965C70.4487 1.5 70.2343 0.982502 69.8527 0.600908C69.4711 0.219315 68.9536 0.00488346 68.4139 0.00488346H10.9911C10.7238 0.00466939 10.4591 0.057198 10.2121 0.159379C9.96517 0.26156 9.74077 0.411423 9.55178 0.600411C9.36279 0.7894 9.21293 1.01375 9.11075 1.26072C9.00856 1.50768 8.95609 1.77238 8.9563 2.03965V78.5926C8.9563 79.1323 9.17068 79.6499 9.55227 80.0315C9.93387 80.413 10.4514 80.6274 10.9911 80.6274H18.7183V87.7898C18.7183 88.3295 18.9327 88.847 19.3143 89.2286C19.6958 89.6102 20.2134 89.8246 20.753 89.8246H29.5693V97.9637C29.5693 98.5033 29.7837 99.0208 30.1653 99.4024C30.5469 99.784 31.0644 99.9984 31.6041 99.9984H89.0302C89.5698 99.9984 90.0874 99.784 90.469 99.4024C90.8506 99.0208 91.0649 98.5033 91.0649 97.9637V21.4107C91.0649 21.1432 91.0122 20.8784 90.9097 20.6313C90.8073 20.3842 90.6571 20.1598 90.4678 19.9708C90.2785 19.7818 90.0539 19.6319 89.8066 19.5298C89.5594 19.4278 89.2944 19.3755 89.0269 19.3759ZM13.0226 76.553V4.06956H66.3791V9.19722H20.758C20.2183 9.19722 19.7008 9.41155 19.3192 9.79314C18.9376 10.1747 18.7232 10.6923 18.7232 11.232V76.553H13.0226ZM22.7895 85.7518V13.2668H76.1444V19.3759H31.6008C31.0612 19.3759 30.5436 19.5903 30.162 19.9719C29.7804 20.3535 29.566 20.871 29.566 21.4107V85.7518H22.7895ZM86.997 95.9305H33.6356V23.4455H86.9922L86.997 95.9305Z" fill="#56B9B3"/>
<path d="M39.9547 69.1708C39.415 69.1708 38.8975 69.3852 38.5159 69.7668C38.1343 70.1484 37.9199 70.6659 37.9199 71.2055C37.9199 71.7452 38.1343 72.2628 38.5159 72.6444C38.8975 73.026 39.415 73.2403 39.9547 73.2403H80.6728C81.2125 73.2403 81.73 73.026 82.1116 72.6444C82.4932 72.2628 82.7076 71.7452 82.7076 71.2055C82.7076 70.6659 82.4932 70.1484 82.1116 69.7668C81.73 69.3852 81.2125 69.1708 80.6728 69.1708H39.9547Z" fill="#56B9B3"/>
<path d="M80.6728 77.0006H39.9547C39.415 77.0006 38.8975 77.215 38.5159 77.5966C38.1343 77.9782 37.9199 78.4957 37.9199 79.0354C37.9199 79.575 38.1343 80.0926 38.5159 80.4742C38.8975 80.8558 39.415 81.0702 39.9547 81.0702H80.6728C81.2125 81.0702 81.73 80.8558 82.1116 80.4742C82.4932 80.0926 82.7076 79.575 82.7076 79.0354C82.7076 78.4957 82.4932 77.9782 82.1116 77.5966C81.73 77.215 81.2125 77.0006 80.6728 77.0006Z" fill="#56B9B3"/>
<path d="M80.6728 84.8336H39.9547C39.415 84.8336 38.8975 85.048 38.5159 85.4296C38.1343 85.8112 37.9199 86.3287 37.9199 86.8684C37.9199 87.408 38.1343 87.9256 38.5159 88.3072C38.8975 88.6888 39.415 88.9032 39.9547 88.9032H80.6728C81.2125 88.9032 81.73 88.6888 82.1116 88.3072C82.4932 87.9256 82.7076 87.408 82.7076 86.8684C82.7076 86.3287 82.4932 85.8112 82.1116 85.4296C81.73 85.048 81.2125 84.8336 80.6728 84.8336Z" fill="#56B9B3"/>
<path d="M80.6747 29.0304H39.9548V63.1755H80.6747V29.0304Z" fill="#56B9B3"/>
</svg>
