<svg width="100" height="100" viewBox="0 0 100 100" fill="none" xmlns="http://www.w3.org/2000/svg">
<path d="M82.1984 53.4087C81.7796 51.7346 80.0829 50.7167 78.4088 51.135L61.7421 55.3017C60.0679 55.7204 59.0496 57.4171 59.4684 59.0912C59.8871 60.7658 61.5838 61.7837 63.2579 61.365L79.9246 57.1983C81.5988 56.78 82.6171 55.0833 82.1984 53.4087Z" fill="#56B9B3"/>
<path d="M82.2916 22.9168C82.2916 21.1909 80.8924 19.7918 79.1666 19.7918C77.4408 19.7918 76.0416 21.1909 76.0416 22.9168V37.2443L72.9195 35.7612L72.8828 35.7427C72.6787 35.6383 71.8178 35.1983 70.8333 35.1983C69.8487 35.1983 68.9878 35.6383 68.7837 35.7427L68.747 35.7612L65.6249 37.2443V28.9586C65.6249 27.2327 64.2257 25.8336 62.4999 25.8336C60.7741 25.8336 59.3749 27.2327 59.3749 28.9586V39.7385C59.3741 40.2019 59.3732 40.8626 59.462 41.4298C59.5703 42.1233 59.9266 43.4617 61.3128 44.2754C62.6478 45.0596 63.9532 44.7683 64.5741 44.5754C65.1149 44.4071 65.7082 44.1246 66.1507 43.9138L70.8333 41.6896L75.5158 43.9138C75.9583 44.1246 76.5516 44.4071 77.0924 44.5754C77.7132 44.7683 79.0187 45.0596 80.3537 44.2754C81.7399 43.4617 82.0962 42.1233 82.2045 41.4298C82.2932 40.8626 82.2924 40.2019 82.2916 39.7385V22.9168Z" fill="#56B9B3"/>
<path d="M17.8016 36.7422C18.2201 35.0679 19.9169 34.0499 21.5912 34.4685L38.2579 38.6351C39.9322 39.0537 40.9502 40.7504 40.5316 42.4246C40.1131 44.0992 38.4164 45.1171 36.742 44.6983L20.0754 40.5318C18.401 40.1133 17.383 38.4166 17.8016 36.7422Z" fill="#56B9B3"/>
<path d="M21.5912 51.135C19.9169 50.7167 18.2201 51.7346 17.8016 53.4087C17.383 55.0833 18.401 56.78 20.0754 57.1983L36.742 61.365C38.4164 61.7837 40.1131 60.7658 40.5316 59.0912C40.9502 57.4171 39.9322 55.7204 38.2579 55.3017L21.5912 51.135Z" fill="#56B9B3"/>
<path fill-rule="evenodd" clip-rule="evenodd" d="M94.7916 20.5551C94.7916 14.458 89.9362 9.22908 83.5662 9.451C78.8228 9.61621 72.6233 10.1096 67.8537 11.5375C63.7078 12.7786 59.0441 15.203 55.4091 17.3069C52.0003 19.2797 47.757 19.3781 44.3032 17.552C40.1556 15.3587 34.6985 12.759 29.9639 11.5096C25.9605 10.4532 20.8965 9.94575 16.785 9.69308C10.2923 9.29404 5.20825 14.5778 5.20825 20.8243V67.265C5.20825 73.6658 10.3907 78.6633 16.5334 79.0475C20.5283 79.2975 25.0235 79.7779 28.3693 80.6608C32.5049 81.7521 37.6191 84.1787 41.7482 86.3796C46.887 89.1188 53.1128 89.1188 58.2516 86.3796C62.3807 84.1787 67.4949 81.7521 71.6308 80.6608C74.9762 79.7779 79.4716 79.2975 83.4666 79.0475C89.6091 78.6633 94.7916 73.6658 94.7916 67.265V20.5551ZM83.7837 15.6972C86.3453 15.608 88.5416 17.7152 88.5416 20.5551V67.265C88.5416 70.1225 86.1737 72.6158 83.0762 72.8096C78.9924 73.065 73.9962 73.5725 70.0357 74.6175C65.1595 75.9046 59.5112 78.6254 55.3116 80.8642C54.6103 81.2379 53.877 81.5325 53.1249 81.7475V24.7586C55.0095 24.3814 56.842 23.6988 58.5395 22.7163C62.0833 20.6655 66.2287 18.548 69.6462 17.5249C73.6012 16.3409 79.1216 15.8596 83.7837 15.6972ZM46.8749 24.8959C44.9791 24.6011 43.1208 23.9966 41.3819 23.0771C37.3118 20.925 32.3781 18.6106 28.3693 17.5527C24.985 16.6597 20.4265 16.1787 16.4015 15.9313C13.76 15.769 11.4583 17.9194 11.4583 20.8243V67.265C11.4583 70.1225 13.8262 72.6158 16.9236 72.8096C21.0072 73.065 26.0037 73.5725 29.9639 74.6175C34.8403 75.9046 40.4885 78.6254 44.6882 80.8642C45.3895 81.2379 46.1228 81.5325 46.8749 81.7475V24.8959Z" fill="#56B9B3"/>
</svg>
