<svg width="488" height="339" viewBox="0 0 488 339" fill="none" xmlns="http://www.w3.org/2000/svg">
<g clip-path="url(#clip0_19_28)">
<path d="M97.0798 339C150.696 339 194.16 335.699 194.16 331.627C194.16 327.555 150.696 324.254 97.0798 324.254C43.4641 324.254 0 327.555 0 331.627C0 335.699 43.4641 339 97.0798 339Z" fill="#E6E6E6"/>
<path d="M74.206 75.2181C91.1008 68.0322 112.144 72.5851 132.694 75.745C132.885 71.9184 135.203 67.2611 132.775 64.5914C129.825 61.348 130.097 57.94 131.872 54.5125C136.411 45.7476 129.908 36.4214 123.341 28.6667C121.861 26.9228 119.99 25.5525 117.881 24.6673C115.772 23.7821 113.484 23.4068 111.203 23.572L99.0386 24.4408C96.0786 24.6523 93.2537 25.7626 90.942 27.6234C88.6303 29.4842 86.942 32.0065 86.1031 34.853C83.1985 38.8033 81.6439 42.7427 82.6227 46.6615C78.2721 49.6346 77.5412 53.2234 79.4962 57.2692C81.1539 59.8166 81.1362 62.2962 79.4207 64.7073C77.1678 67.7811 75.4422 71.2086 74.3148 74.8491L74.206 75.2181Z" fill="#2F2E41"/>
<path d="M475.697 293.06H131.36C128.297 293.06 125.361 291.844 123.195 289.678C121.03 287.513 119.814 284.576 119.814 281.514C244.636 267.007 367.112 267.007 487.242 281.514C487.242 284.576 486.026 287.513 483.861 289.678C481.695 291.844 478.759 293.06 475.697 293.06Z" fill="#2F2E41"/>
<path d="M487.242 282.193L119.814 281.514L162.397 209.862L162.601 209.523V51.6098C162.601 49.6931 162.978 47.7951 163.712 46.0242C164.445 44.2534 165.52 42.6444 166.876 41.289C168.231 39.9337 169.84 38.8586 171.611 38.1252C173.382 37.3918 175.28 37.0144 177.196 37.0145H427.822C429.739 37.0144 431.637 37.3918 433.408 38.1252C435.179 38.8586 436.788 39.9337 438.143 41.289C439.498 42.6444 440.573 44.2534 441.307 46.0242C442.04 47.7951 442.418 49.6931 442.417 51.6098V210.609L487.242 282.193Z" fill="#3F3D56"/>
<path d="M176.864 47.202C175.603 47.2034 174.395 47.7048 173.503 48.5961C172.612 49.4873 172.111 50.6957 172.109 51.9562V195.939C172.111 197.2 172.612 198.408 173.504 199.299C174.395 200.191 175.603 200.692 176.864 200.694H430.192C431.453 200.692 432.661 200.191 433.553 199.299C434.444 198.408 434.945 197.2 434.947 195.939V51.9562C434.945 50.6958 434.444 49.4874 433.553 48.5961C432.661 47.7049 431.453 47.2035 430.192 47.202H176.864Z" fill="white"/>
<path d="M177.925 219.71C177.536 219.711 177.154 219.823 176.827 220.033C176.499 220.243 176.237 220.543 176.074 220.896L162.953 249.421C162.81 249.731 162.747 250.073 162.771 250.414C162.795 250.755 162.904 251.084 163.088 251.372C163.272 251.659 163.526 251.896 163.826 252.06C164.126 252.224 164.462 252.31 164.803 252.31H440.739C441.086 252.31 441.428 252.221 441.731 252.052C442.034 251.883 442.289 251.639 442.472 251.344C442.654 251.048 442.758 250.711 442.774 250.364C442.79 250.017 442.716 249.672 442.561 249.361L428.298 220.836C428.13 220.497 427.87 220.212 427.548 220.013C427.226 219.814 426.855 219.709 426.476 219.71H177.925Z" fill="#2F2E41"/>
<path d="M302.509 44.825C304.197 44.825 305.566 43.4566 305.566 41.7687C305.566 40.0808 304.197 38.7125 302.509 38.7125C300.821 38.7125 299.453 40.0808 299.453 41.7687C299.453 43.4566 300.821 44.825 302.509 44.825Z" fill="white"/>
<path d="M275.387 257.743C274.939 257.744 274.504 257.892 274.148 258.164C273.793 258.437 273.537 258.819 273.42 259.251L270.129 271.476C270.047 271.778 270.036 272.095 270.097 272.401C270.158 272.708 270.288 272.997 270.479 273.245C270.669 273.493 270.914 273.695 271.194 273.833C271.474 273.971 271.783 274.043 272.096 274.043H334.69C335.015 274.043 335.335 273.966 335.624 273.817C335.912 273.668 336.161 273.452 336.35 273.188C336.538 272.923 336.66 272.617 336.707 272.296C336.753 271.974 336.721 271.646 336.615 271.339L332.383 259.114C332.245 258.714 331.985 258.367 331.64 258.121C331.295 257.876 330.882 257.744 330.458 257.743H275.387Z" fill="#2F2E41"/>
<path d="M442.417 207.146V209.862H162.397L162.608 209.523V207.146H442.417Z" fill="#2F2E41"/>
<path d="M434.607 95.0832C460.864 95.0832 482.149 73.7981 482.149 47.5416C482.149 21.2851 460.864 0 434.607 0C408.351 0 387.065 21.2851 387.065 47.5416C387.065 73.7981 408.351 95.0832 434.607 95.0832Z" fill="#56B9B3"/>
<path d="M454.303 68.2562H414.911C414.191 68.2555 413.5 67.969 412.991 67.4597C412.482 66.9504 412.195 66.2598 412.195 65.5395V41.7687C412.195 41.0484 412.482 40.3579 412.991 39.8486C413.5 39.3393 414.191 39.0528 414.911 39.052H454.303C455.023 39.0528 455.714 39.3393 456.223 39.8486C456.732 40.3579 457.019 41.0484 457.02 41.7687V65.5395C457.019 66.2598 456.732 66.9504 456.223 67.4597C455.714 67.969 455.023 68.2555 454.303 68.2562ZM414.911 41.7687V65.5395H454.305L454.303 41.7687L414.911 41.7687Z" fill="white"/>
<path d="M446.832 41.7687H422.382V30.9021C422.382 23.0313 427.524 17.3187 434.607 17.3187C441.691 17.3187 446.832 23.0313 446.832 30.9021L446.832 41.7687ZM425.099 39.052H444.115V30.9021C444.115 24.504 440.206 20.0354 434.607 20.0354C429.009 20.0354 425.099 24.504 425.099 30.9021L425.099 39.052Z" fill="white"/>
<path d="M434.607 55.6916C436.107 55.6916 437.324 54.4753 437.324 52.9749C437.324 51.4746 436.107 50.2583 434.607 50.2583C433.107 50.2583 431.89 51.4746 431.89 52.9749C431.89 54.4753 433.107 55.6916 434.607 55.6916Z" fill="white"/>
<path d="M401.419 151.856H205.637C204.676 151.855 203.754 151.472 203.075 150.793C202.395 150.113 202.013 149.192 202.012 148.23V99.6652C202.013 98.704 202.395 97.7825 203.075 97.1028C203.754 96.4231 204.676 96.0407 205.637 96.0396H401.419C402.38 96.0407 403.302 96.4231 403.981 97.1028C404.661 97.7825 405.043 98.704 405.044 99.6652V148.23C405.043 149.192 404.661 150.113 403.981 150.793C403.302 151.472 402.38 151.855 401.419 151.856ZM205.637 97.4899C205.06 97.4905 204.508 97.7199 204.1 98.1277C203.692 98.5355 203.463 99.0885 203.462 99.6652V148.23C203.463 148.807 203.692 149.36 204.1 149.768C204.508 150.176 205.06 150.405 205.637 150.406H401.419C401.996 150.405 402.549 150.176 402.956 149.768C403.364 149.36 403.594 148.807 403.594 148.23V99.6652C403.594 99.0884 403.364 98.5355 402.956 98.1277C402.549 97.7199 401.996 97.4905 401.419 97.4898L205.637 97.4899Z" fill="#E6E6E6"/>
<path d="M236.058 136.853C244.214 136.853 250.826 130.241 250.826 122.084C250.826 113.928 244.214 107.316 236.058 107.316C227.901 107.316 221.289 113.928 221.289 122.084C221.289 130.241 227.901 136.853 236.058 136.853Z" fill="#E6E6E6"/>
<path d="M270.166 112.239C269.843 112.238 269.522 112.301 269.223 112.425C268.924 112.548 268.652 112.729 268.423 112.958C268.194 113.187 268.013 113.458 267.889 113.757C267.765 114.056 267.701 114.376 267.701 114.7C267.701 115.024 267.765 115.344 267.889 115.643C268.013 115.942 268.194 116.213 268.423 116.442C268.652 116.67 268.924 116.852 269.223 116.975C269.522 117.099 269.843 117.162 270.166 117.161H386.206C386.859 117.161 387.485 116.902 387.947 116.44C388.408 115.979 388.668 115.353 388.668 114.7C388.668 114.047 388.408 113.421 387.947 112.959C387.485 112.498 386.859 112.239 386.206 112.239H270.166Z" fill="#E6E6E6"/>
<path d="M270.166 127.007C269.514 127.007 268.888 127.267 268.426 127.728C267.964 128.19 267.705 128.816 267.705 129.469C267.705 130.121 267.964 130.748 268.426 131.209C268.888 131.671 269.514 131.93 270.166 131.93H320.099C320.751 131.93 321.378 131.671 321.839 131.209C322.301 130.748 322.56 130.121 322.56 129.469C322.56 128.816 322.301 128.19 321.839 127.728C321.378 127.267 320.751 127.007 320.099 127.007H270.166Z" fill="#E6E6E6"/>
<path d="M161.916 128.003L125.724 147.244L125.266 131.21C137.078 129.238 148.317 125.804 158.709 120.215L162.494 110.863C162.906 109.844 163.577 108.95 164.439 108.268C165.302 107.587 166.327 107.141 167.413 106.975C168.5 106.809 169.611 106.928 170.638 107.322C171.664 107.715 172.571 108.368 173.269 109.218C174.29 110.461 174.8 112.045 174.696 113.65C174.593 115.255 173.883 116.761 172.711 117.862L161.916 128.003Z" fill="#FFB8B8"/>
<path d="M73.4846 239.095C73.2206 238.126 73.1645 237.113 73.3201 236.121C73.4757 235.13 73.8395 234.183 74.3874 233.342L82.3377 221.14C84.2181 218.255 87.1035 216.17 90.434 215.291C93.7645 214.413 97.3026 214.803 100.362 216.385C97.0207 222.073 97.4865 227.062 101.516 231.398C95.2607 234.452 89.4794 238.393 84.3512 243.1C83.415 243.738 82.3398 244.143 81.2153 244.282C80.0907 244.42 78.9493 244.288 77.8862 243.896C76.823 243.505 75.8689 242.864 75.1033 242.029C74.3377 241.194 73.7827 240.188 73.4846 239.095Z" fill="#2F2E41"/>
<path d="M163.564 223.141C162.361 225.146 160.663 226.809 158.632 227.968C156.602 229.128 154.307 229.747 151.969 229.764L99.1527 230.164L96.8621 216.879L120.226 210.007L100.527 194.889L122.059 169.692L161.167 206.143C163.453 208.273 164.938 211.124 165.374 214.218C165.811 217.312 165.172 220.462 163.564 223.141Z" fill="#2F2E41"/>
<path d="M90.9065 314.001H78.5371C67.4313 237.875 56.1265 161.535 89.5321 133.042L128.931 139.456L123.891 172.899L101.901 198.096L90.9065 314.001Z" fill="#2F2E41"/>
<path d="M101.78 331.246C100.811 331.51 99.7981 331.566 98.8066 331.411C97.815 331.255 96.8676 330.891 96.0267 330.344L82.5962 328.538C79.7102 326.658 77.6255 323.773 76.7467 320.442C75.8678 317.112 76.2574 313.574 77.8399 310.514C83.5275 313.855 88.5168 313.389 92.8525 309.359C95.916 315.545 100.964 315.168 105.784 320.379C106.422 321.315 106.828 322.391 106.966 323.515C107.105 324.64 106.973 325.781 106.581 326.844C106.189 327.907 105.549 328.862 104.714 329.627C103.879 330.393 102.873 330.948 101.78 331.246Z" fill="#2F2E41"/>
<path d="M120.226 82.1906L97.3202 76.6931C101.125 68.9059 101.438 60.241 99.6108 51.0382L115.187 50.58C115.675 62.024 117.152 72.7156 120.226 82.1906Z" fill="#FFB8B8"/>
<path d="M126.522 153.25C109.847 164.613 98.065 153.639 89.074 136.707C90.3233 126.347 88.3004 113.948 84.5538 100.477C82.8875 94.5346 83.5096 88.1838 86.2972 82.6781C89.0848 77.1723 93.8353 72.9117 99.6108 70.7375L119.31 78.9837C136.037 92.6182 139.329 107.387 133.054 122.964L126.522 153.25Z" fill="#E2E3E4"/>
<path d="M78.5371 93.6437L60.2122 103.264L92.7389 122.505L97.2648 133.669C97.5669 134.414 97.7141 135.213 97.6973 136.017C97.6806 136.821 97.5003 137.613 97.1675 138.345C96.8347 139.077 96.3562 139.733 95.7614 140.274C95.1666 140.815 94.4678 141.229 93.7077 141.492C92.8437 141.789 91.9224 141.883 91.016 141.766C90.1096 141.648 89.2428 141.323 88.4833 140.814C87.7238 140.306 87.0924 139.628 86.6384 138.835C86.1845 138.042 85.9203 137.154 85.8667 136.242L85.409 128.461L44.0678 114.818C42.6749 114.359 41.4049 113.588 40.3539 112.565C39.303 111.542 38.4986 110.293 38.0018 108.913C37.2776 106.901 37.2407 104.706 37.897 102.671C38.5532 100.637 39.8655 98.8768 41.6285 97.6673L74.8721 74.8606L78.5371 93.6437Z" fill="#FFB8B8"/>
<path d="M96.8621 95.4762C89.2194 92.1268 82.2698 95.7652 73.4978 98.683L72.1234 74.4025C80.8336 69.76 89.1382 68.5084 96.8621 72.1119L96.8621 95.4762Z" fill="#E2E3E4"/>
<path d="M106.004 62.607C114.081 62.607 120.629 56.0593 120.629 47.9823C120.629 39.9053 114.081 33.3576 106.004 33.3576C97.9274 33.3576 91.3797 39.9053 91.3797 47.9823C91.3797 56.0593 97.9274 62.607 106.004 62.607Z" fill="#FFB8B8"/>
<path d="M123.5 46.1371C109.021 47.5552 97.9871 45.1871 90.9355 38.4444V33.0142H122.271L123.5 46.1371Z" fill="#2F2E41"/>
</g>
<defs>
<clipPath id="clip0_19_28">
<rect width="487.242" height="339" fill="white"/>
</clipPath>
</defs>
</svg>
