<svg width="473" height="339" viewBox="0 0 473 339" fill="none" xmlns="http://www.w3.org/2000/svg">
<g clip-path="url(#clip0_19_2)">
<path d="M12.5062 338.252C12.5062 338.667 12.8393 339 13.2541 339H471.578C471.993 339 472.326 338.667 472.326 338.252C472.326 337.837 471.993 337.504 471.578 337.504H13.2541C12.8393 337.504 12.5062 337.837 12.5062 338.252Z" fill="#3F3D58"/>
<path d="M159.269 59.7973H12.2737C6.66791 59.7973 2.10535 55.2347 2.10535 49.6289C2.10535 44.0231 6.66791 39.4605 12.2737 39.4605H159.269C164.875 39.4605 169.437 44.0231 169.437 49.6289C169.437 55.2347 164.875 59.7973 159.269 59.7973ZM12.2737 40.7174C7.35921 40.7174 3.36225 44.7144 3.36225 49.6289C3.36225 54.5434 7.35921 58.5404 12.2737 58.5404H159.269C164.183 58.5404 168.18 54.5434 168.18 49.6289C168.18 44.7144 164.183 40.7174 159.269 40.7174H12.2737Z" fill="#BCBCBC"/>
<path d="M159.269 178.795H12.2737C6.83758 178.795 2.41956 174.377 2.41956 168.941C2.41956 163.505 6.83758 159.087 12.2737 159.087H159.269C164.705 159.087 169.123 163.505 169.123 168.941C169.123 174.377 164.705 178.795 159.269 178.795Z" fill="#56B9B3"/>
<path d="M111.098 19.7083H9.85414C4.41802 19.7083 0 15.2903 0 9.85414C0 4.41802 4.41802 0 9.85414 0H111.098C116.534 0 120.952 4.41802 120.952 9.85414C120.952 15.2903 116.534 19.7083 111.098 19.7083Z" fill="#BCBCBC"/>
<path d="M159.269 99.5658H12.2737C6.66791 99.5658 2.10535 95.0032 2.10535 89.3974C2.10535 83.7916 6.66791 79.229 12.2737 79.229H159.269C164.875 79.229 169.437 83.7916 169.437 89.3974C169.437 95.0032 164.875 99.5658 159.269 99.5658ZM12.2737 80.4859C7.35921 80.4859 3.36225 84.4829 3.36225 89.3974C3.36225 94.3119 7.35921 98.3089 12.2737 98.3089H159.269C164.183 98.3089 168.18 94.3119 168.18 89.3974C168.18 84.4829 164.183 80.4859 159.269 80.4859H12.2737Z" fill="#BCBCBC"/>
<path d="M159.269 139.341H12.2737C6.66791 139.341 2.10535 134.778 2.10535 129.172C2.10535 123.566 6.66791 119.004 12.2737 119.004H159.269C164.875 119.004 169.437 123.566 169.437 129.172C169.437 134.778 164.875 139.341 159.269 139.341ZM12.2737 120.261C7.35921 120.261 3.36225 124.258 3.36225 129.172C3.36225 134.087 7.35921 138.084 12.2737 138.084H159.269C164.183 138.084 168.18 134.087 168.18 129.172C168.18 124.258 164.183 120.261 159.269 120.261H12.2737Z" fill="#BCBCBC"/>
<path d="M7.22094 32.1579H45.7451C46.6626 32.1579 47.4105 32.8995 47.4105 33.8233C47.4105 34.7409 46.6626 35.4887 45.7451 35.4887H7.22094C6.3034 35.4887 5.55554 34.7472 5.55554 33.8233C5.55554 32.9058 6.3034 32.1579 7.22094 32.1579Z" fill="#BCBCBC"/>
<path d="M7.22094 72.8691H45.7451C46.6626 72.8691 47.4105 73.6107 47.4105 74.5282C47.4105 75.4458 46.6626 76.1936 45.7451 76.1936H7.22094C6.3034 76.1936 5.55554 75.4521 5.55554 74.5345C5.55554 73.617 6.3034 72.8691 7.22094 72.8691Z" fill="#BCBCBC"/>
<path d="M7.22094 113.587H45.7451C46.6626 113.587 47.4105 114.328 47.4105 115.252C47.4105 116.169 46.6626 116.911 45.7451 116.911H7.22094C6.3034 116.911 5.55554 116.169 5.55554 115.246C5.55554 114.328 6.3034 113.587 7.22094 113.587Z" fill="#BCBCBC"/>
<path d="M280.969 83.1192L266.916 87.7446V67.5147H279.668L280.969 83.1192Z" fill="#FFB8B8"/>
<path d="M268.657 73.1142C276.39 73.1142 282.659 66.8453 282.659 59.1122C282.659 51.3792 276.39 45.1103 268.657 45.1103C260.924 45.1103 254.655 51.3792 254.655 59.1122C254.655 66.8453 260.924 73.1142 268.657 73.1142Z" fill="#FFB8B8"/>
<path d="M272.503 57.7234C270.159 57.6542 268.62 55.285 267.708 53.1231C266.797 50.9612 265.861 48.4788 263.686 47.5864C261.908 46.8574 258.772 51.7908 257.37 50.4773C255.906 49.1073 257.333 42.0749 258.885 40.8117C260.437 39.5485 262.561 39.3034 264.56 39.2092C269.437 38.9829 274.345 39.3788 279.127 40.3781C282.087 40.994 285.129 41.9241 287.266 44.0608C289.968 46.7757 290.659 50.867 290.854 54.6942C291.055 58.6095 290.829 62.707 288.925 66.1321C287.021 69.5571 283.036 72.0835 279.215 71.21C278.832 69.1361 279.222 67.0056 279.372 64.894C279.517 62.7887 279.366 60.5137 278.078 58.8357C276.796 57.1578 274.043 56.4916 272.547 57.981" fill="#2F2E43"/>
<path d="M289.729 62.575C291.131 61.5507 292.809 60.6897 294.531 60.9034C296.391 61.1296 297.968 62.663 298.446 64.4793C298.924 66.2955 298.389 68.294 297.233 69.7771C296.083 71.2603 294.367 72.2407 292.557 72.7308C291.508 73.0136 290.358 73.1331 289.358 72.7057C287.888 72.071 287.09 70.1919 287.668 68.6962" fill="#2F2E43"/>
<path d="M236.147 194.318C235.211 198.918 236.927 203.122 239.968 203.707C243.01 204.291 246.234 201.029 247.164 196.429C247.56 194.594 247.497 192.696 246.982 190.886L258.564 118.771L244.078 116.044L238.485 189.259C237.297 190.742 236.499 192.476 236.147 194.324V194.318Z" fill="#FFB8B8"/>
<path d="M266.766 78.4623H256.88C249.892 79.5244 247.994 83.2511 246.404 90.139C243.978 100.647 240.88 114.636 241.496 114.843C242.482 115.17 259.312 123.089 267.891 121.279L266.766 78.4623Z" fill="#BCBCBC"/>
<path d="M276.324 308.168H263.165V326.839H276.324V308.168Z" fill="#FFB8B8"/>
<path d="M250.35 338.139C248.968 338.139 247.736 338.108 246.806 338.02C243.312 337.699 239.975 335.116 238.297 333.608C237.543 332.929 237.304 331.848 237.693 330.918C237.976 330.252 238.536 329.749 239.233 329.554L248.471 326.915L263.429 316.822L263.598 317.124C263.661 317.237 265.132 319.882 265.622 321.667C265.81 322.346 265.76 322.912 265.477 323.352C265.282 323.653 265.006 323.829 264.786 323.93C265.056 324.213 265.905 324.791 268.519 325.205C272.334 325.809 273.138 321.856 273.17 321.692L273.195 321.56L273.308 321.485C275.124 320.316 276.243 319.782 276.626 319.895C276.865 319.964 277.267 320.09 278.354 330.855C278.461 331.195 279.222 333.671 278.706 336.04C278.147 338.617 266.885 337.731 264.629 337.529C264.566 337.536 256.132 338.139 250.357 338.139H250.35Z" fill="#2F2E43"/>
<path d="M313.797 293.499L302.63 300.462L312.511 316.305L323.677 309.341L313.797 293.499Z" fill="#FFB8B8"/>
<path d="M298.968 335.581C297.422 335.581 296.001 335.393 294.989 335.217C293.997 335.041 293.217 334.249 293.054 333.256C292.941 332.539 293.148 331.817 293.638 331.283L300.08 324.156L307.433 307.678L307.735 307.841C307.848 307.904 310.493 309.368 311.857 310.625C312.379 311.103 312.636 311.612 312.624 312.134C312.618 312.498 312.479 312.787 312.341 312.995C312.718 313.095 313.742 313.133 316.181 312.102C319.738 310.6 318.33 306.817 318.267 306.66L318.217 306.534L318.274 306.415C319.197 304.46 319.857 303.417 320.247 303.31C320.492 303.241 320.894 303.134 327.512 311.7C327.782 311.926 329.737 313.629 330.554 315.911C331.44 318.393 321.416 323.603 319.399 324.621C319.336 324.671 308.847 332.294 304.536 334.463C302.826 335.324 300.803 335.587 298.961 335.587L298.968 335.581Z" fill="#2F2E43"/>
<path d="M286.015 152.029H249.169L245.826 186.305L260.456 312.951H279.266L271.743 239.805L302.254 305.843L318.971 294.141L295.147 232.49C295.147 232.49 303.656 178.782 296.969 165.402C290.282 152.029 286.015 152.029 286.015 152.029Z" fill="#2F2E43"/>
<path d="M304.347 154.115H245.826L263.385 78.4623H288.881L304.347 154.115Z" fill="#BCBCBC"/>
<path d="M309.614 194.318C310.55 198.918 308.834 203.122 305.793 203.707C302.751 204.291 299.527 201.029 298.597 196.429C298.201 194.594 298.264 192.696 298.779 190.886L287.197 118.771L301.683 116.044L307.276 189.259C308.464 190.742 309.262 192.476 309.614 194.324V194.318Z" fill="#FFB8B8"/>
<path d="M278.995 78.4623H288.881C295.869 79.5244 297.767 83.2511 299.357 90.139C301.783 100.647 304.881 114.636 304.265 114.843C303.279 115.17 286.449 123.089 277.87 121.279L278.995 78.4623Z" fill="#BCBCBC"/>
</g>
<defs>
<clipPath id="clip0_19_2">
<rect width="472.326" height="339" fill="white"/>
</clipPath>
</defs>
</svg>
