<svg width="88" height="100" viewBox="0 0 88 100" fill="none" xmlns="http://www.w3.org/2000/svg">
<g clip-path="url(#clip0_19_59)">
<path d="M59.375 25C59.375 20.856 57.7288 16.8817 54.7985 13.9515C51.8683 11.0212 47.894 9.375 43.75 9.375C39.606 9.375 35.6317 11.0212 32.7015 13.9515C29.7712 16.8817 28.125 20.856 28.125 25C28.125 29.144 29.7712 33.1183 32.7015 36.0485C35.6317 38.9788 39.606 40.625 43.75 40.625C47.894 40.625 51.8683 38.9788 54.7985 36.0485C57.7288 33.1183 59.375 29.144 59.375 25ZM18.75 25C18.75 18.3696 21.3839 12.0107 26.0723 7.32233C30.7607 2.63392 37.1196 0 43.75 0C50.3804 0 56.7393 2.63392 61.4277 7.32233C66.1161 12.0107 68.75 18.3696 68.75 25C68.75 31.6304 66.1161 37.9893 61.4277 42.6777C56.7393 47.3661 50.3804 50 43.75 50C37.1196 50 30.7607 47.3661 26.0723 42.6777C21.3839 37.9893 18.75 31.6304 18.75 25ZM9.62891 90.625H77.8711C76.1328 78.2617 65.5078 68.75 52.6758 68.75H34.8242C21.9922 68.75 11.3672 78.2617 9.62891 90.625ZM0 94.1992C0 74.9609 15.5859 59.375 34.8242 59.375H52.6758C71.9141 59.375 87.5 74.9609 87.5 94.1992C87.5 97.4023 84.9023 100 81.6992 100H5.80078C2.59766 100 0 97.4023 0 94.1992Z" fill="#56B9B3"/>
</g>
<defs>
<clipPath id="clip0_19_59">
<rect width="87.5" height="100" fill="white"/>
</clipPath>
</defs>
</svg>
