<svg width="100" height="100" viewBox="0 0 100 100" fill="none" xmlns="http://www.w3.org/2000/svg">
<path d="M16.6667 79.1667V25.8333C16.6667 21.1662 16.6667 18.8327 17.575 17.0501C18.374 15.482 19.6488 14.2072 21.2168 13.4083C22.9994 12.5 25.333 12.5 30.0001 12.5H70.0001C74.6672 12.5 77.0009 12.5 78.7834 13.4083C80.3513 14.2072 81.6263 15.482 82.4251 17.0501C83.3334 18.8327 83.3334 21.1662 83.3334 25.8333V70.8333H25.0001C20.3977 70.8333 16.6667 74.5642 16.6667 79.1667ZM16.6667 79.1667C16.6667 83.7692 20.3977 87.5 25.0001 87.5H83.3334M37.5001 29.1667H62.5001M37.5001 45.8333H62.5001M79.1667 70.8333V87.5" stroke="#56B9B3" stroke-width="6" stroke-linecap="round" stroke-linejoin="round"/>
</svg>
